<svg width="242" height="53" viewBox="0 0 242 53" fill="none" xmlns="http://www.w3.org/2000/svg">
<path d="M0.248839 30.2626L17.4188 13.1107L15.6128 11.3066L0 26.903C0.0113109 28.0442 0.0980276 29.1629 0.248839 30.2626Z" fill="#FBA244"/>
<path d="M21.6679 17.3553L19.862 15.5512L1.11983 34.2699C1.39506 35.1776 1.71176 36.0627 2.07748 36.9214L21.6679 17.3515V17.3553Z" fill="#FBA244"/>
<path d="M27.067 0C26.7767 0 26.4901 0.0112988 26.2036 0.0225979L54.1075 27.8973C54.1264 27.4642 54.1415 27.0311 54.1415 26.5904C54.1415 25.7882 54.1 24.9935 54.0321 24.2101L29.9399 0.143121C28.9974 0.0489622 28.0397 0 27.0708 0H27.067Z" fill="#FBA244"/>
<path d="M52.7464 18.0483C50.1336 10.2897 44.037 4.19572 36.1872 1.50655L52.7464 18.0483Z" fill="#FBA244"/>
<path d="M25.917 21.6037L24.111 19.7996L3.73254 40.1567C4.18121 40.9024 4.66381 41.6218 5.18411 42.3148L25.917 21.6037Z" fill="#FBA244"/>
<path d="M29.3027 52.936C36.8509 52.356 43.4376 48.8683 47.9318 43.5879L29.3027 24.9784V52.936Z" fill="#FBA244"/>
<path d="M25.8454 26.5565L7.44256 44.94C12.0838 49.6781 18.5499 52.6987 25.8454 53V26.5527V26.5565Z" fill="#FBA244"/>
<path d="M21.7848 0.49336C20.797 0.677911 19.8242 0.91519 18.8816 1.20143L52.7615 35.0458C53.0707 34.123 53.3346 33.1815 53.542 32.2173L21.7848 0.49336Z" fill="#FBA244"/>
<path d="M13.1696 8.86593L10.0742 5.77376C5.15023 9.63427 1.67779 15.1633 0.467529 21.551L13.1659 8.86593H13.1696Z" fill="#FBA244"/>
<path d="M51.3213 38.4882L15.3413 2.546C14.527 2.92264 13.7352 3.33693 12.9736 3.7889L50.0054 40.7819C50.4805 40.04 50.9216 39.2754 51.3213 38.4882Z" fill="#FBA244"/>
<path d="M104.082 37.532H99.0699V36.2802C97.8485 37.3741 96.2189 38 94.184 38C90.0166 38 86.5103 34.6524 86.5103 29.6768C86.5103 24.7013 90.0195 21.3536 94.184 21.3536C96.2189 21.3536 97.8485 21.9795 99.0699 23.0763V21.8245H104.082V37.532ZM99.0699 29.6768C99.0699 27.268 97.2535 25.6085 95.2158 25.6085C93.0229 25.6085 91.4249 27.268 91.4249 29.6768C91.4249 32.0856 93.0229 33.7451 95.2158 33.7451C97.2507 33.7451 99.0699 32.1172 99.0699 29.6768Z" fill="white"/>
<path d="M116.863 37.532L111.756 31.8674H110.848V37.532H105.836V15H110.848V27.1733H111.538L116.518 21.8216H122.565L115.673 29.3007L123.287 37.532H116.863Z" fill="white"/>
<path d="M138.919 37.532L128.299 25.3903V37.532H123.132V16.5647H127.423L138.042 29.0825V16.5647H143.181V37.532H138.919Z" fill="white"/>
<path d="M160.377 30.9602H148.849C149.257 32.8378 150.541 33.9949 152.231 33.9949C153.39 33.9949 154.738 33.7135 155.583 32.1804L160.032 33.0876C158.684 36.4037 155.833 38 152.231 38C147.69 38 143.931 34.6524 143.931 29.6768C143.931 24.7013 147.69 21.3536 152.263 21.3536C156.836 21.3536 160.282 24.5462 160.377 29.6768V30.9602ZM148.943 27.8939H155.427C154.959 26.2028 153.706 25.4219 152.263 25.4219C150.82 25.4219 149.412 26.2976 148.943 27.8939Z" fill="white"/>
<path d="M172.752 36.8429C171.531 37.5004 170.246 37.9999 168.461 37.9999C164.547 37.9999 162.196 35.8725 162.196 31.741V25.7951H159.345V21.8216H162.196V17.1905H167.208V21.8216H171.844V25.7951H167.208V31.2386C167.208 32.8665 167.99 33.524 169.306 33.524C169.996 33.524 170.936 33.2742 171.594 32.8981L172.752 36.84V36.8429Z" fill="white"/>
<path d="M190.609 37.5607H186.255L183.435 29.048L180.584 37.5607H176.23L171.186 21.8216H176.104L178.673 30.2711L181.648 21.8216H185.188L188.163 30.3027L190.732 21.8216H195.65L190.606 37.5607H190.609Z" fill="white"/>
<path d="M211.756 29.6768C211.756 34.6523 207.81 37.9684 203.143 37.9684C198.475 37.9684 194.434 34.6523 194.434 29.6768C194.434 24.7012 198.38 21.4167 203.143 21.4167C207.905 21.4167 211.756 24.7328 211.756 29.6768ZM206.931 29.6768C206.931 27.2364 205.083 25.6085 203.14 25.6085C201.197 25.6085 199.257 27.2364 199.257 29.6768C199.257 32.1172 201.105 33.745 203.14 33.745C205.175 33.745 206.931 32.1487 206.931 29.6768Z" fill="white"/>
<path d="M224.034 21.7268L223.816 26.7339H222.908C219.398 26.7339 217.487 28.5485 217.487 32.6167V37.5291H212.475V21.8216H217.487V24.8247C218.614 22.947 220.338 21.6005 222.908 21.6005C223.347 21.6005 223.661 21.6321 224.034 21.7268Z" fill="white"/>
<path d="M235.312 37.532L230.205 31.8674H229.297V37.532H224.284V15H229.297V27.1733H229.986L234.967 21.8216H241.014L234.122 29.3007L241.736 37.532H235.312Z" fill="white"/>
<path d="M86.5074 27.0785C86.5074 33.1795 81.5899 38 75.3245 38C69.059 38 64.1415 33.1795 64.1415 27.0785C64.1415 20.9775 69.059 16.0938 75.3245 16.0938C81.5899 16.0938 86.5074 20.943 86.5074 27.0785ZM81.3399 27.0785C81.3399 23.4811 78.7388 20.8196 75.3245 20.8196C71.9101 20.8196 69.309 23.4782 69.309 27.0785C69.309 30.6788 71.9101 33.2742 75.3245 33.2742C78.7388 33.2742 81.3399 30.6443 81.3399 27.0785Z" fill="white"/>
</svg>
